<?xml version="1.0" encoding="UTF-8"?>
<svg version="1.1" xmlns="http://www.w3.org/2000/svg" width="160" height="160">
<path d="M0 0 C1.44642639 1.36877441 1.44642639 1.36877441 3.01586914 3.32226562 C7.61684334 8.80760578 12.67355938 13.79875797 17.74609375 18.84375 C18.76764047 19.86342709 19.78896326 20.88332856 20.81007385 21.90344238 C23.47266437 24.56225061 26.13824599 27.21803958 28.80450439 29.87316895 C31.53492671 32.59328393 34.26245074 35.31630185 36.99023438 38.0390625 C42.324022 43.36218863 47.66097916 48.68212218 53 54 C56.76960274 52.43261067 59.16050401 50.08707884 62.02807617 47.21484375 C62.51473251 46.73008575 63.00138885 46.24532776 63.50279236 45.74588013 C65.10444039 44.14792631 66.69879204 42.54290484 68.29296875 40.9375 C69.40550358 39.82377269 70.51840873 38.7104152 71.63166809 37.59741211 C73.96060216 35.26691562 76.2861425 32.9331025 78.60913086 30.59667969 C81.59011266 27.59867884 84.57766461 24.60733259 87.56754589 21.61820984 C89.86432467 19.3211595 92.15849073 17.02151497 94.4517765 14.72097778 C95.55281773 13.61675031 96.65446927 12.51313104 97.75673485 11.41012573 C99.29372901 9.87096924 100.8273885 8.3285686 102.36010742 6.78515625 C103.23406662 5.90738525 104.10802582 5.02961426 105.00846863 4.12524414 C107.03774199 2.16223612 107.03774199 2.16223612 108 0 C113.91348106 0.71382993 117.75707203 6.23829091 121.75610352 10.25512695 C123.31085051 11.81084948 124.88571953 13.34400867 126.46289062 14.87695312 C127.45181854 15.86067631 128.43949363 16.8456609 129.42578125 17.83203125 C130.77796753 19.17358276 130.77796753 19.17358276 132.1574707 20.54223633 C134 23 134 23 133.91860962 24.82688904 C132.5939792 27.96050404 130.54819226 29.82577456 128.14477539 32.22753906 C127.64065628 32.73530884 127.13653717 33.24307861 126.61714172 33.76623535 C124.95129187 35.44018198 123.27484098 37.1030412 121.59765625 38.765625 C120.43751282 39.92524984 119.27788729 41.08539302 118.11875916 42.24603271 C115.68973853 44.67496367 113.25563448 47.09864508 110.81762695 49.51855469 C107.68720893 52.62624791 104.56802472 55.74493301 101.45232487 58.86737442 C99.06015455 61.26287941 96.66303733 63.65338196 94.26428032 66.04228973 C93.11185594 67.190856 91.96078774 68.34078462 90.81108284 69.49207306 C89.20713545 71.09638969 87.59687204 72.69407511 85.98461914 74.29003906 C84.61014366 75.65760345 84.61014366 75.65760345 83.207901 77.05279541 C81 79 81 79 79 79 C84.56697804 85.59799516 90.56757853 91.7147867 96.67578125 97.80859375 C97.69246239 98.82595 98.70899517 99.84345453 99.72538757 100.86109924 C101.83915173 102.97632658 103.95468616 105.08976234 106.0715332 107.2019043 C108.78631521 109.91094572 111.49652335 112.62451198 114.20545673 115.33940029 C116.29596319 117.43351245 118.38883561 119.52524691 120.48244286 121.61625862 C121.48353677 122.61668556 122.48388866 123.61785559 123.48348427 124.61977959 C124.87369926 126.01252592 126.26745196 127.4017383 127.66137695 128.79077148 C128.45300735 129.58160629 129.24463776 130.3724411 130.06025696 131.1872406 C131.87650993 133.05657249 131.87650993 133.05657249 134 134 C133.28617007 139.91348106 127.76170909 143.75707203 123.74487305 147.75610352 C122.18915052 149.31085051 120.65599133 150.88571953 119.12304688 152.46289062 C118.13932369 153.45181854 117.1543391 154.43949363 116.16796875 155.42578125 C115.27360107 156.32723877 114.3792334 157.22869629 113.45776367 158.1574707 C111 160 111 160 109.17311096 159.91860962 C106.03949596 158.5939792 104.17422544 156.54819226 101.77246094 154.14477539 C101.26469116 153.64065628 100.75692139 153.13653717 100.23376465 152.61714172 C98.55981802 150.95129187 96.8969588 149.27484098 95.234375 147.59765625 C94.07475016 146.43751282 92.91460698 145.27788729 91.75396729 144.11875916 C89.32503633 141.68973853 86.90135492 139.25563448 84.48144531 136.81762695 C81.37375209 133.68720893 78.25506699 130.56802472 75.13262558 127.45232487 C72.73712059 125.06015455 70.34661804 122.66303733 67.95771027 120.26428032 C66.809144 119.11185594 65.65921538 117.96078774 64.50792694 116.81108284 C62.90361031 115.20713545 61.30592489 113.59687204 59.70996094 111.98461914 C58.34239655 110.61014366 58.34239655 110.61014366 56.94720459 109.207901 C55 107 55 107 55 105 C54.34 105 53.68 105 53 105 C52.76993256 105.55374802 52.53986511 106.10749603 52.30282593 106.67802429 C50.63641592 109.64800168 48.54977794 111.72797082 46.15478516 114.15161133 C45.66348618 114.65123383 45.17218719 115.15085632 44.66600037 115.6656189 C43.04577117 117.30988003 41.41804045 118.9464399 39.7890625 120.58203125 C38.65799425 121.72206651 37.52700373 122.8621789 36.39608765 124.00236511 C34.02753811 126.38738548 31.65464662 128.76799358 29.27929688 131.14624023 C26.2318421 134.19909631 23.20089532 137.26780373 20.17362404 140.34065723 C17.84521852 142.69874375 15.5057009 145.04555772 13.16291428 147.38934898 C12.04004272 148.51643575 10.92130658 149.64765787 9.80678177 150.78299904 C8.25071471 152.36581192 6.679749 153.93217217 5.10400391 155.49536133 C3.76736191 156.8396093 3.76736191 156.8396093 2.40371704 158.21101379 C-0 160 -0 160 -2.16439819 159.91188049 C-5.01669863 158.49492987 -6.95311306 156.4368718 -9.203125 154.1953125 C-9.6857782 153.71552948 -10.1684314 153.23574646 -10.66571045 152.74142456 C-11.68122273 151.72794931 -12.69297411 150.71069336 -13.70117188 149.68994141 C-15.24811598 148.12690362 -16.81044699 146.58054545 -18.375 145.03515625 C-19.36033866 144.04783579 -20.34474663 143.05958544 -21.328125 142.0703125 C-22.67245605 140.72090576 -22.67245605 140.72090576 -24.04394531 139.34423828 C-26 137 -26 137 -26 134 C-24.62998962 132.55110168 -24.62998962 132.55110168 -22.67553711 130.97973633 C-17.21093679 126.3960712 -12.22535035 121.37005476 -7.19140625 116.32421875 C-6.17405 115.30753761 -5.15654547 114.29100483 -4.13890076 113.27461243 C-2.02367342 111.16084827 0.08976234 109.04531384 2.2019043 106.9284668 C4.91094572 104.21368479 7.62451198 101.50347665 10.33940029 98.79454327 C12.43351245 96.70403681 14.52524691 94.61116439 16.61625862 92.51755714 C17.61668556 91.51646323 18.61785559 90.51611134 19.61977959 89.51651573 C21.01252592 88.12630074 22.4017383 86.73254804 23.79077148 85.33862305 C24.58160629 84.54699265 25.3724411 83.75536224 26.1872406 82.93974304 C28.05657249 81.12349007 28.05657249 81.12349007 29 79 C28.16937798 78.65489883 28.16937798 78.65489883 27.32197571 78.30282593 C24.35199832 76.63641592 22.27202918 74.54977794 19.84838867 72.15478516 C19.34876617 71.66348618 18.84914368 71.17218719 18.3343811 70.66600037 C16.69011997 69.04577117 15.0535601 67.41804045 13.41796875 65.7890625 C12.27793349 64.65799425 11.1378211 63.52700373 9.99763489 62.39608765 C7.61261452 60.02753811 5.23200642 57.65464662 2.85375977 55.27929688 C-0.19909631 52.2318421 -3.26780373 49.20089532 -6.34065723 46.17362404 C-8.69874375 43.84521852 -11.04555772 41.5057009 -13.38934898 39.16291428 C-14.51643575 38.04004272 -15.64765787 36.92130658 -16.78299904 35.80678177 C-18.36581192 34.25071471 -19.93217217 32.679749 -21.49536133 31.10400391 C-22.8396093 29.76736191 -22.8396093 29.76736191 -24.21101379 28.40371704 C-26 26 -26 26 -25.91188049 23.83560181 C-24.49492987 20.98330137 -22.4368718 19.04688694 -20.1953125 16.796875 C-19.71552948 16.3142218 -19.23574646 15.8315686 -18.74142456 15.33428955 C-17.72794931 14.31877727 -16.71069336 13.30702589 -15.68994141 12.29882812 C-14.12690362 10.75188402 -12.58054545 9.18955301 -11.03515625 7.625 C-10.04783579 6.63966134 -9.05958544 5.65525337 -8.0703125 4.671875 C-7.17070801 3.7756543 -6.27110352 2.87943359 -5.34423828 1.95605469 C-3 0 -3 0 0 0 Z " fill="#EC0101" transform="translate(26,0)"/>
<path d="M0 0 C3.86466333 1.58780359 6.30059155 4.05933229 9.22753906 7.00048828 C9.73530884 7.507966 10.24307861 8.01544373 10.76623535 8.53829956 C12.43748509 10.21093869 14.10154556 11.89054217 15.765625 13.5703125 C16.92532377 14.73374278 18.08546592 15.89673126 19.24603271 17.05929565 C22.29509352 20.115982 25.33809963 23.17862744 28.37988281 26.24255371 C31.48659913 29.36975165 34.59900545 32.49127507 37.7109375 35.61328125 C43.81287417 41.7366488 49.90842598 47.8663236 56 54 C59.76672156 50.81597912 63.49002591 47.63838094 66.96484375 44.1328125 C67.94614258 43.14667969 67.94614258 43.14667969 68.94726562 42.140625 C69.60404297 41.47546875 70.26082031 40.8103125 70.9375 40.125 C71.62134766 39.43664062 72.30519531 38.74828125 73.00976562 38.0390625 C74.67551464 36.36166489 76.3388622 34.68196209 78 33 C78.99 33.33 79.98 33.66 81 34 C77.81367626 37.30978049 74.61137229 40.60290041 71.39306641 43.8815918 C70.30028398 44.99954232 69.21202796 46.12193584 68.12841797 47.2487793 C66.57122656 48.86652023 64.99852955 50.46765715 63.421875 52.06640625 C62.93942322 52.57466446 62.45697144 53.08292267 61.9598999 53.60658264 C60.56542969 55.00219727 60.56542969 55.00219727 58 57 C53.806956 56.83607183 51.59973029 53.97398984 48.77246094 51.14477539 C48.01080627 50.38859673 48.01080627 50.38859673 47.23376465 49.61714172 C45.55981802 47.95129187 43.8969588 46.27484098 42.234375 44.59765625 C41.07475016 43.43751282 39.91460698 42.27788729 38.75396729 41.11875916 C36.32503633 38.68973853 33.90135492 36.25563448 31.48144531 33.81762695 C28.37375209 30.68720893 25.25506699 27.56802472 22.13262558 24.45232487 C19.73712059 22.06015455 17.34661804 19.66303733 14.95771027 17.26428032 C13.809144 16.11185594 12.65921538 14.96078774 11.50792694 13.81108284 C9.90361031 12.20713545 8.30592489 10.59687204 6.70996094 8.98461914 C5.34239655 7.61014366 5.34239655 7.61014366 3.94720459 6.207901 C2 4 2 4 2 2 C1.34 2 0.68 2 0 2 C-0.34510117 2.83062202 -0.34510117 2.83062202 -0.69717407 3.67802429 C-2.36358408 6.64800168 -4.45022206 8.72797082 -6.84521484 11.15161133 C-7.33651382 11.65123383 -7.82781281 12.15085632 -8.33399963 12.6656189 C-9.95422883 14.30988003 -11.58195955 15.9464399 -13.2109375 17.58203125 C-14.34200575 18.72206651 -15.47299627 19.8621789 -16.60391235 21.00236511 C-18.97246189 23.38738548 -21.34535338 25.76799358 -23.72070312 28.14624023 C-26.7681579 31.19909631 -29.79910468 34.26780373 -32.82637596 37.34065723 C-35.15478148 39.69874375 -37.4942991 42.04555772 -39.83708572 44.38934898 C-40.95995728 45.51643575 -42.07869342 46.64765787 -43.19321823 47.78299904 C-44.74928529 49.36581192 -46.320251 50.93217217 -47.89599609 52.49536133 C-48.78709076 53.39152664 -49.67818542 54.28769196 -50.59628296 55.21101379 C-53 57 -53 57 -55.16439819 56.91485596 C-58.039569 55.48188333 -59.95863659 53.37348021 -62.203125 51.08984375 C-62.6857782 50.60294571 -63.1684314 50.11604767 -63.66571045 49.61439514 C-65.2010085 48.0623455 -66.72552925 46.50017864 -68.25 44.9375 C-69.2909722 43.88147643 -70.3326314 42.82612962 -71.375 41.77148438 C-73.92467633 39.18878585 -76.46479196 36.59691118 -79 34 C-77.515 33.505 -77.515 33.505 -76 33 C-69.07 39.93 -62.14 46.86 -55 54 C-50.73271548 50.34232756 -46.73473114 46.85869594 -42.79907227 42.91259766 C-42.32987869 42.44355011 -41.86068512 41.97450256 -41.37727356 41.49124146 C-39.85459669 39.96787788 -38.33547505 38.44102322 -36.81640625 36.9140625 C-35.75045891 35.84624655 -34.68428795 34.77865378 -33.61790466 33.71127319 C-30.83249861 30.92207682 -28.05011071 28.129889 -25.26837158 25.33703613 C-22.42098936 22.47936425 -19.57072014 19.62457498 -16.72070312 16.76953125 C-11.14432919 11.18248158 -5.57114506 5.59226366 0 0 Z " fill="#790000" transform="translate(79,103)"/>
<path d="M0 0 C1.44642639 1.36877441 1.44642639 1.36877441 3.01586914 3.32226562 C7.61684334 8.80760578 12.67355938 13.79875797 17.74609375 18.84375 C18.76764047 19.86342709 19.78896326 20.88332856 20.81007385 21.90344238 C23.47266437 24.56225061 26.13824599 27.21803958 28.80450439 29.87316895 C31.53492671 32.59328393 34.26245074 35.31630185 36.99023438 38.0390625 C42.324022 43.36218863 47.66097916 48.68212218 53 54 C56.76960274 52.43261067 59.16050401 50.08707884 62.02807617 47.21484375 C62.51473251 46.73008575 63.00138885 46.24532776 63.50279236 45.74588013 C65.10444039 44.14792631 66.69879204 42.54290484 68.29296875 40.9375 C69.40550358 39.82377269 70.51840873 38.7104152 71.63166809 37.59741211 C73.96060216 35.26691562 76.2861425 32.9331025 78.60913086 30.59667969 C81.59011266 27.59867884 84.57766461 24.60733259 87.56754589 21.61820984 C89.86432467 19.3211595 92.15849073 17.02151497 94.4517765 14.72097778 C95.55281773 13.61675031 96.65446927 12.51313104 97.75673485 11.41012573 C99.29372901 9.87096924 100.8273885 8.3285686 102.36010742 6.78515625 C103.23406662 5.90738525 104.10802582 5.02961426 105.00846863 4.12524414 C107.03774199 2.16223612 107.03774199 2.16223612 108 0 C112.27180143 0.49256486 114.27419678 2.93014207 117.203125 5.91015625 C117.6857782 6.39705429 118.1684314 6.88395233 118.66571045 7.38560486 C120.2010085 8.9376545 121.72552925 10.49982136 123.25 12.0625 C124.2909722 13.11852357 125.3326314 14.17387038 126.375 15.22851562 C128.92467633 17.81121415 131.46479196 20.40308882 134 23 C133.01 23.33 132.02 23.66 131 24 C130.41508789 23.38890381 129.83017578 22.77780762 129.22753906 22.14819336 C127.05334732 19.88883643 124.86813802 17.6409135 122.67480469 15.40014648 C121.72751645 14.42769895 120.78476221 13.45081335 119.84667969 12.46948242 C118.49831092 11.06053683 117.13218107 9.66865627 115.765625 8.27734375 C114.94868164 7.43421631 114.13173828 6.59108887 113.29003906 5.72241211 C111.23481794 3.79499535 111.23481794 3.79499535 109.18359375 4.08691406 C106.0296116 5.40577511 104.17758268 7.46432813 101.77246094 9.88696289 C101.01080627 10.64796043 101.01080627 10.64796043 100.23376465 11.42433167 C98.56009075 13.10009267 96.89728872 14.78622269 95.234375 16.47265625 C94.07489473 17.63773273 92.91474958 18.80214786 91.75396729 19.96592712 C88.70267213 23.02866897 85.66049375 26.10031331 82.62011719 29.17388916 C79.5152144 32.30949644 76.4017869 35.43661367 73.2890625 38.56445312 C67.18432568 44.70135102 61.08919256 50.84767857 55 57 C51.17280705 55.42586668 48.80241712 53.01353047 45.92773438 50.07543945 C45.43614334 49.57610901 44.94455231 49.07677856 44.43806458 48.56231689 C43.37467576 47.48131643 42.31351435 46.39812128 41.25434875 45.31298256 C39.57847216 43.59764365 37.89513877 41.88996772 36.20935059 40.18437195 C31.41859213 35.33559144 26.63775227 30.47720388 21.87158203 25.60424805 C18.95336397 22.62172586 16.02319125 19.65140677 13.08503723 16.68852806 C11.96717858 15.55638006 10.85401929 14.41957239 9.74565125 13.27813148 C8.19906294 11.68602089 6.63780587 10.10982292 5.07226562 8.53637695 C4.18720337 7.63417923 3.30214111 6.73198151 2.39025879 5.80244446 C0.20806378 3.75809676 0.20806378 3.75809676 -2.17962646 4.10037231 C-4.79726031 5.39400564 -6.50571898 7.17137544 -8.546875 9.25390625 C-9.39121094 10.10791016 -10.23554688 10.96191406 -11.10546875 11.84179688 C-11.97816406 12.73962891 -12.85085938 13.63746094 -13.75 14.5625 C-14.63816406 15.46419922 -15.52632812 16.36589844 -16.44140625 17.29492188 C-18.63448315 19.52337098 -20.82026044 21.75851593 -23 24 C-23.99 23.67 -24.98 23.34 -26 23 C-22.78896247 19.7148879 -19.56825616 16.43968961 -16.33813477 13.17333984 C-15.24035716 12.06046191 -14.14528533 10.94490824 -13.05297852 9.82666016 C-11.48374331 8.22109676 -9.90507543 6.6253616 -8.32421875 5.03125 C-7.83660568 4.52815308 -7.34899261 4.02505615 -6.84660339 3.50671387 C-3.34161512 -0 -3.34161512 -0 0 0 Z " fill="#F94343" transform="translate(26,0)"/>
<path d="M0 0 C0.99 0.33 1.98 0.66 3 1 C-3.832409 7.90188846 -10.67287611 14.79567707 -17.52377701 21.67921352 C-20.7045983 24.87569743 -23.88256608 28.07491468 -27.05419922 31.28051758 C-30.11452009 34.37341016 -33.18208977 37.45893829 -36.25484467 40.53947639 C-37.42645703 41.71663616 -38.59542362 42.89643531 -39.76169586 44.07888603 C-41.39444705 45.73338197 -43.03631442 47.37828252 -44.68066406 49.02124023 C-45.1618721 49.5132341 -45.64308014 50.00522797 -46.13887024 50.51213074 C-48.62052104 52.97111161 -50.45913876 54.59904325 -54 55 C-48.68985746 48.55309361 -42.82873116 42.70050563 -36.9140625 36.81640625 C-35.84624655 35.75045891 -34.77865378 34.68428795 -33.71127319 33.61790466 C-30.92207682 30.83249861 -28.129889 28.05011071 -25.33703613 25.26837158 C-22.47936425 22.42098936 -19.62457498 19.57072014 -16.76953125 16.72070312 C-11.18248158 11.14432919 -5.59226366 5.57114506 0 0 Z " fill="#7D0000" transform="translate(157,25)"/>
<path d="M0 0 C4.22765056 0.47872676 6.48476888 3.08065854 9.31933594 5.97875977 C9.83685928 6.49584503 10.35438263 7.0129303 10.8875885 7.54568481 C12.59372597 9.25390966 14.28899592 10.97250895 15.984375 12.69140625 C17.16627559 13.87890296 18.34884096 15.06573835 19.53204346 16.25193787 C22.64252102 19.3738629 25.74388392 22.50469244 28.84344482 25.63745117 C32.00867181 28.83338097 35.18242168 32.0208219 38.35546875 35.20898438 C44.57869148 41.46436954 50.79231978 47.72919325 57 54 C56.01 54.495 56.01 54.495 55 55 C48.30861162 49.36107999 42.11286569 43.2598986 35.9375 37.0703125 C34.89532794 36.02881541 33.8530076 34.9874667 32.81054688 33.94625854 C30.64404495 31.78121993 28.47933488 29.61441026 26.31591797 27.44628906 C23.5372791 24.66190348 20.75410677 21.88209907 17.96961975 19.10356331 C15.82493862 16.96248238 13.68262824 14.8190422 11.54104614 12.67486191 C10.51467352 11.64782108 9.48755446 10.62152566 8.45968628 9.5959816 C7.03321267 8.17203094 5.6102603 6.74455539 4.1875 5.31689453 C3.37667969 4.50527863 2.56585937 3.69366272 1.73046875 2.85745239 C0 1 0 1 0 0 Z " fill="#7D0000" transform="translate(0,25)"/>
</svg>
